<?xml version="1.0" encoding="iso-8859-1"?>
<!-- Generator: Adobe Illustrator 19.0.0, SVG Export Plug-In . SVG Version: 6.00 Build 0)  -->
<svg version="1.1" id="Capa_1" xmlns="http://www.w3.org/2000/svg" xmlns:xlink="http://www.w3.org/1999/xlink" x="0px" y="0px"
	 viewBox="0 0 480 480" style="enable-background:new 0 0 480 480;" xml:space="preserve">
<g>
	<g>
		<path d="M240,176H40c-13.255,0-24,10.745-24,24v256c0,13.255,10.745,24,24,24h200c13.255,0,24-10.745,24-24V200
			C264,186.745,253.255,176,240,176z M248,456c0,4.418-3.582,8-8,8H40c-4.418,0-8-3.582-8-8V200c0-4.418,3.582-8,8-8h200
			c4.418,0,8,3.582,8,8V456z"/>
	</g>
</g>
<g>
	<g>
		<path d="M224,208H56c-4.418,0-8,3.582-8,8v48c0,4.418,3.582,8,8,8h168c4.418,0,8-3.582,8-8v-48C232,211.582,228.418,208,224,208z
			 M216,256H64v-32h152V256z"/>
	</g>
</g>
<g>
	<g>
		<path d="M96,288H56c-4.418,0-8,3.582-8,8v32c0,4.418,3.582,8,8,8h40c4.418,0,8-3.582,8-8v-32C104,291.582,100.418,288,96,288z
			 M88,320H64v-16h24V320z"/>
	</g>
</g>
<g>
	<g>
		<path d="M160,288h-40c-4.418,0-8,3.582-8,8v32c0,4.418,3.582,8,8,8h40c4.418,0,8-3.582,8-8v-32C168,291.582,164.418,288,160,288z
			 M152,320h-24v-16h24V320z"/>
	</g>
</g>
<g>
	<g>
		<path d="M224,288h-40c-4.418,0-8,3.582-8,8v32c0,4.418,3.582,8,8,8h40c4.418,0,8-3.582,8-8v-32C232,291.582,228.418,288,224,288z
			 M216,320h-24v-16h24V320z"/>
	</g>
</g>
<g>
	<g>
		<path d="M96,344H56c-4.418,0-8,3.582-8,8v32c0,4.418,3.582,8,8,8h40c4.418,0,8-3.582,8-8v-32C104,347.582,100.418,344,96,344z
			 M88,376H64v-16h24V376z"/>
	</g>
</g>
<g>
	<g>
		<path d="M160,344h-40c-4.418,0-8,3.582-8,8v32c0,4.418,3.582,8,8,8h40c4.418,0,8-3.582,8-8v-32C168,347.582,164.418,344,160,344z
			 M152,376h-24v-16h24V376z"/>
	</g>
</g>
<g>
	<g>
		<path d="M224,344h-40c-4.418,0-8,3.582-8,8v88c0,4.418,3.582,8,8,8h40c4.418,0,8-3.582,8-8v-88C232,347.582,228.418,344,224,344z
			 M216,432h-24v-72h24V432z"/>
	</g>
</g>
<g>
	<g>
		<path d="M96,400H56c-4.418,0-8,3.582-8,8v32c0,4.418,3.582,8,8,8h40c4.418,0,8-3.582,8-8v-32C104,403.582,100.418,400,96,400z
			 M88,432H64v-16h24V432z"/>
	</g>
</g>
<g>
	<g>
		<path d="M160,400h-40c-4.418,0-8,3.582-8,8v32c0,4.418,3.582,8,8,8h40c4.418,0,8-3.582,8-8v-32C168,403.582,164.418,400,160,400z
			 M152,432h-24v-16h24V432z"/>
	</g>
</g>
<g>
	<g>
		<path d="M463.376,140.92c-0.397-0.969-0.984-1.847-1.728-2.584l-136-136c-0.737-0.744-1.615-1.331-2.584-1.728
			C322.093,0.204,321.052-0.003,320,0H104c-4.418,0-8,3.582-8,8v144c0,4.418,3.582,8,8,8s8-3.582,8-8V16h200v128
			c0,4.418,3.582,8,8,8h128v312H288c-4.418,0-8,3.582-8,8s3.582,8,8,8h168c4.418,0,8-3.582,8-8V144
			C464,142.942,463.788,141.895,463.376,140.92z M328,136V27.312L436.688,136H328z"/>
	</g>
</g>
<g>
	<g>
		<path d="M288,72H136c-4.418,0-8,3.582-8,8s3.582,8,8,8h152c4.418,0,8-3.582,8-8S292.418,72,288,72z"/>
	</g>
</g>
<g>
	<g>
		<path d="M288,136H136c-4.418,0-8,3.582-8,8s3.582,8,8,8h152c4.418,0,8-3.582,8-8S292.418,136,288,136z"/>
	</g>
</g>
<g>
	<g>
		<path d="M424,200H288c-4.418,0-8,3.582-8,8s3.582,8,8,8h136c4.418,0,8-3.582,8-8S428.418,200,424,200z"/>
	</g>
</g>
<g>
	<g>
		<path d="M424,264H288c-4.418,0-8,3.582-8,8s3.582,8,8,8h136c4.418,0,8-3.582,8-8S428.418,264,424,264z"/>
	</g>
</g>
<g>
	<g>
		<path d="M424,328H288c-4.418,0-8,3.582-8,8s3.582,8,8,8h136c4.418,0,8-3.582,8-8S428.418,328,424,328z"/>
	</g>
</g>
<g>
	<g>
		<path d="M424,392H288c-4.418,0-8,3.582-8,8s3.582,8,8,8h136c4.418,0,8-3.582,8-8S428.418,392,424,392z"/>
	</g>
</g>
<g>
</g>
<g>
</g>
<g>
</g>
<g>
</g>
<g>
</g>
<g>
</g>
<g>
</g>
<g>
</g>
<g>
</g>
<g>
</g>
<g>
</g>
<g>
</g>
<g>
</g>
<g>
</g>
<g>
</g>
</svg>
