<?xml version="1.0" encoding="iso-8859-1"?>
<!-- Generator: Adobe Illustrator 19.0.0, SVG Export Plug-In . SVG Version: 6.00 Build 0)  -->
<svg version="1.1" id="Capa_1" xmlns="http://www.w3.org/2000/svg" xmlns:xlink="http://www.w3.org/1999/xlink" x="0px" y="0px"
	 viewBox="0 0 512 512" style="enable-background:new 0 0 512 512;" xml:space="preserve">
<g>
	<g>
		<path d="M141.708,212.083c-7.406-3.703-16.419-0.702-20.124,6.708l-20.693,41.386l-15.284-15.284
			c-5.857-5.858-15.355-5.858-21.213,0c-5.858,5.858-5.858,15.355,0,21.213l30,30c7.251,7.252,19.455,5.237,24.022-3.898l30-60
			C152.121,224.799,149.118,215.788,141.708,212.083z"/>
	</g>
</g>
<g>
	<g>
		<path d="M141.708,332.083c-7.406-3.703-16.419-0.702-20.124,6.708l-20.693,41.386l-15.284-15.284
			c-5.857-5.858-15.355-5.858-21.213,0c-5.858,5.858-5.858,15.355,0,21.213l30,30c7.236,7.237,19.446,5.255,24.022-3.898l30-60
			C152.121,344.799,149.118,335.788,141.708,332.083z"/>
	</g>
</g>
<g>
	<g>
		<path d="M315,210.5h-90c-8.284,0-15,6.716-15,15s6.716,15,15,15h90c8.284,0,15-6.716,15-15S323.284,210.5,315,210.5z"/>
	</g>
</g>
<g>
	<g>
		<path d="M315,270.5H195c-8.284,0-15,6.716-15,15s6.716,15,15,15h120c8.284,0,15-6.716,15-15S323.284,270.5,315,270.5z"/>
	</g>
</g>
<g>
	<g>
		<path d="M315,330.5h-90c-8.284,0-15,6.716-15,15s6.716,15,15,15h90c8.284,0,15-6.716,15-15S323.284,330.5,315,330.5z"/>
	</g>
</g>
<g>
	<g>
		<path d="M315,390.5H195c-8.284,0-15,6.716-15,15s6.716,15,15,15h120c8.284,0,15-6.716,15-15S323.284,390.5,315,390.5z"/>
	</g>
</g>
<g>
	<g>
		<path d="M345,90.5h-17.58c-6.192-17.459-22.865-30-42.42-30h-16.507c-6.97-34.191-37.274-60-73.493-60s-66.523,25.809-73.493,60
			H105c-19.555,0-36.228,12.541-42.42,30H45c-24.813,0-45,20.187-45,45v331c0,24.813,20.187,45,45,45h300c24.813,0,45-20.187,45-45
			v-331C390,110.687,369.813,90.5,345,90.5z M90,105.5c0-8.271,6.729-15,15-15h30c8.284,0,15-6.716,15-15c0-24.813,20.187-45,45-45
			s45,20.187,45,45c0,8.284,6.716,15,15,15h30c8.271,0,15,6.729,15,15v15H90V105.5z M360,466.5c0,8.271-6.729,15-15,15H45
			c-8.271,0-15-6.729-15-15v-331c0-8.271,6.729-15,15-15h15v15c0,8.284,6.716,15,15,15h240c8.284,0,15-6.716,15-15v-15h15
			c8.271,0,15,6.729,15,15V466.5z"/>
	</g>
</g>
<g>
	<g>
		<path d="M510.416,158.792l-30-60c-5.522-11.047-21.323-11.022-26.832,0l-30,60c-1.042,2.083-1.584,4.38-1.584,6.708v301
			c0,24.813,20.187,45,45,45s45-20.187,45-45v-301C512,163.171,511.458,160.875,510.416,158.792z M482,466.5c0,8.271-6.729,15-15,15
			s-15-6.729-15-15v-46h30V466.5z M482,390.5h-30V169.041l15-30l15,30V390.5z"/>
	</g>
</g>
<g>
	<g>
		<circle cx="195" cy="75.5" r="15"/>
	</g>
</g>
<g>
</g>
<g>
</g>
<g>
</g>
<g>
</g>
<g>
</g>
<g>
</g>
<g>
</g>
<g>
</g>
<g>
</g>
<g>
</g>
<g>
</g>
<g>
</g>
<g>
</g>
<g>
</g>
<g>
</g>
</svg>
