<?xml version="1.0" encoding="iso-8859-1"?>
<!-- Generator: Adobe Illustrator 19.0.0, SVG Export Plug-In . SVG Version: 6.00 Build 0)  -->
<svg version="1.1" id="Capa_1" xmlns="http://www.w3.org/2000/svg" xmlns:xlink="http://www.w3.org/1999/xlink" x="0px" y="0px"
	 viewBox="0 0 512 512" style="enable-background:new 0 0 512 512;" xml:space="preserve">
<g>
	<g>
		<path d="M401.067,0H110.933c-4.71,0-8.533,3.823-8.533,8.533v494.933c0,4.71,3.823,8.533,8.533,8.533h290.133
			c4.71,0,8.533-3.823,8.533-8.533V8.533C409.6,3.823,405.777,0,401.067,0z M392.533,494.933H119.467V17.067h273.067V494.933z"/>
	</g>
</g>
<g>
	<g>
		<path d="M366.933,34.133H145.067c-4.71,0-8.533,3.823-8.533,8.533v460.8c0,4.71,3.823,8.533,8.533,8.533h221.867
			c4.71,0,8.533-3.823,8.533-8.533v-460.8C375.467,37.956,371.644,34.133,366.933,34.133z M358.4,494.933H153.6V51.2h204.8V494.933z
			"/>
	</g>
</g>
<g>
	<g>
		<path d="M503.467,494.933H8.533c-4.71,0-8.533,3.823-8.533,8.533S3.823,512,8.533,512h494.933c4.71,0,8.533-3.823,8.533-8.533
			S508.177,494.933,503.467,494.933z"/>
	</g>
</g>
<g>
	<g>
		<path d="M336.247,86.059c-26.496-11.682-53.478-17.664-80.282-17.775c-26.726,0.111-53.717,6.093-80.205,17.775
			c-3.098,1.365-5.094,4.429-5.094,7.808V273.05c0,2.884,1.459,5.572,3.874,7.151c2.424,1.579,5.487,1.818,8.107,0.657
			c24.32-10.726,49.016-16.213,73.318-16.324c24.371,0.111,49.067,5.598,73.395,16.324c1.101,0.486,2.27,0.725,3.439,0.725
			c1.63,0,3.251-0.469,4.659-1.382c2.415-1.579,3.874-4.267,3.874-7.151V93.867C341.333,90.487,339.337,87.424,336.247,86.059z
			 M324.267,260.361c-22.613-8.457-45.525-12.791-68.301-12.894c-22.724,0.102-45.619,4.437-68.233,12.894V99.507
			c22.69-9.301,45.636-14.063,68.233-14.157c22.665,0.094,45.619,4.855,68.301,14.157V260.361z"/>
	</g>
</g>
<g>
	<g>
		<path d="M336.247,299.392c-26.496-11.682-53.478-17.664-80.282-17.775c-26.726,0.111-53.717,6.093-80.205,17.775
			c-3.098,1.365-5.094,4.429-5.094,7.808v162.133c0,4.71,3.823,8.533,8.533,8.533h153.6c4.71,0,8.533-3.823,8.533-8.533V307.2
			C341.333,303.821,339.337,300.757,336.247,299.392z M324.267,460.8H187.733v-147.96c22.69-9.301,45.636-14.063,68.233-14.157
			c22.665,0.094,45.619,4.855,68.301,14.157V460.8z"/>
	</g>
</g>
<g>
</g>
<g>
</g>
<g>
</g>
<g>
</g>
<g>
</g>
<g>
</g>
<g>
</g>
<g>
</g>
<g>
</g>
<g>
</g>
<g>
</g>
<g>
</g>
<g>
</g>
<g>
</g>
<g>
</g>
</svg>
