<?xml version="1.0" encoding="iso-8859-1"?>
<!-- Generator: Adobe Illustrator 19.0.0, SVG Export Plug-In . SVG Version: 6.00 Build 0)  -->
<svg version="1.1" id="Capa_1" xmlns="http://www.w3.org/2000/svg" xmlns:xlink="http://www.w3.org/1999/xlink" x="0px" y="0px"
	 viewBox="0 0 480 480" style="enable-background:new 0 0 480 480;" xml:space="preserve">
<g>
	<g>
		<g>
			<path d="M440,32H40c-4.418,0-8,3.582-8,8v232c0,4.418,3.582,8,8,8h400c4.418,0,8-3.582,8-8V40C448,35.582,444.418,32,440,32z
				 M432,264H48V48h384V264z"/>
			<rect x="224" y="328" width="32" height="16"/>
			<path d="M344,152c13.255,0,24-10.745,24-24s-10.745-24-24-24s-24,10.745-24,24S330.745,152,344,152z M344,120
				c4.418,0,8,3.582,8,8s-3.582,8-8,8s-8-3.582-8-8S339.582,120,344,120z"/>
			<path d="M282.944,169.648l54.584,75.056c2.597,3.574,7.6,4.367,11.174,1.77c0.679-0.493,1.276-1.091,1.77-1.77l54.584-75.056
				c7.135-9.766,10.969-21.553,10.944-33.648c-0.044-39.746-32.254-71.956-72-72c-39.746,0.044-71.956,32.254-72,72
				C271.975,148.095,275.809,159.882,282.944,169.648z M344,80c30.928,0,56,25.072,56,56c0.017,8.71-2.743,17.198-7.88,24.232
				L344,226.4l-48.12-66.168c-5.137-7.034-7.897-15.522-7.88-24.232C288,105.072,313.072,80,344,80z"/>
			<path d="M72,216h24v4c0,15.464,12.536,28,28,28s28-12.536,28-28v-4h40v4c0,15.464,12.536,28,28,28s28-12.536,28-28v-4h40v-16h-80
				V96h64V80h-64v-8c0-4.418-3.582-8-8-8h-56c-13.255,0-24,10.745-24,24v48H88c-13.255,0-24,10.745-24,24v48
				C64,212.418,67.582,216,72,216z M208,216h24v4c0,6.627-5.373,12-12,12c-6.627,0-12-5.373-12-12V216z M136,88c0-4.418,3.582-8,8-8
				h48v120h-56V88z M136,216v4c0,6.627-5.373,12-12,12c-6.627,0-12-5.373-12-12v-4H136z M80,160c0-4.418,3.582-8,8-8h32v48H80V160z"
				/>
			<path d="M456,0H24C10.745,0,0,10.745,0,24v328c0,13.255,10.745,24,24,24h128v88h-40v16h256v-16h-40v-88h128
				c13.255,0,24-10.745,24-24V24C480,10.745,469.255,0,456,0z M312,464H168v-88h144V464z M464,352c0,4.418-3.582,8-8,8H24
				c-4.418,0-8-3.582-8-8v-40h448V352z M464,296H16V24c0-4.418,3.582-8,8-8h432c4.418,0,8,3.582,8,8V296z"/>
		</g>
	</g>
</g>
<g>
</g>
<g>
</g>
<g>
</g>
<g>
</g>
<g>
</g>
<g>
</g>
<g>
</g>
<g>
</g>
<g>
</g>
<g>
</g>
<g>
</g>
<g>
</g>
<g>
</g>
<g>
</g>
<g>
</g>
</svg>
